<?xml version="1.0" encoding="UTF-8" standalone="no"?>
<svg
   enable-background="new 0 0 24 24"
   height="24px"
   viewBox="0 0 24 24"
   width="24px"
   fill="#1f1f1f"
   version="1.1"
   id="svg4"
   sodipodi:docname="micro-app.svg"
   inkscape:version="1.4.2 (ebf0e940, 2025-05-08)"
   xmlns:inkscape="http://www.inkscape.org/namespaces/inkscape"
   xmlns:sodipodi="http://sodipodi.sourceforge.net/DTD/sodipodi-0.dtd"
   xmlns="http://www.w3.org/2000/svg"
   xmlns:svg="http://www.w3.org/2000/svg">
  <defs
     id="defs4" />
  <sodipodi:namedview
     id="namedview4"
     pagecolor="#ffffff"
     bordercolor="#000000"
     borderopacity="0.25"
     inkscape:showpageshadow="2"
     inkscape:pageopacity="0.0"
     inkscape:pagecheckerboard="0"
     inkscape:deskcolor="#d1d1d1"
     inkscape:zoom="19.36"
     inkscape:cx="11.802686"
     inkscape:cy="10.821281"
     inkscape:window-width="2560"
     inkscape:window-height="1022"
     inkscape:window-x="2560"
     inkscape:window-y="308"
     inkscape:window-maximized="1"
     inkscape:current-layer="g3" />
  <g
     id="g1">
    <rect
       fill="none"
       height="24"
       width="24"
       id="rect1" />
  </g>
  <g
     id="g4">
    <g
       id="g3">
      <path
         d="M17 18H7V6h10v1h2V3c0-1.1-.9-2-2-2H7c-1.1 0-2 .9-2 2v18c0 1.1.9 2 2 2h10c1.1 0 2-.9 2-2v-4h-2v1zM7 3h10v1H7V3zm10 18H7v-1h10v1z"
         id="path1" />
      <path
         style="fill:#000000;fill-opacity:0;stroke:#000000;stroke-width:1.4135;stroke-linecap:round;stroke-linejoin:round;stroke-miterlimit:4;stroke-dasharray:none;stroke-dashoffset:0;stroke-opacity:1"
         d="m 20.148584,15.705016 c 0.289465,-0.0023 0.520643,-0.227451 0.518286,-0.505131 L 20.648,12.967192 a 1.2192143,1.1695597 0 0 0 0.722385,0.222088 1.2192143,1.1695597 0 0 0 1.20929,-1.179007 1.2192143,1.1695597 0 0 0 -1.229063,-1.160038 1.2192143,1.1695597 0 0 0 -0.718536,0.233297 l -0.01886,-2.2325103 c -0.0023,-0.2776705 -0.2373,-0.4994363 -0.526764,-0.4971801 l -2.315855,0.018025 a 1.2192143,1.1695597 0 0 1 0.231432,0.6738226 1.2192143,1.1695597 0 0 1 -1.209284,1.1790118 1.2192143,1.1695597 0 0 1 -1.229067,-1.1600443 1.2192143,1.1695597 0 0 1 0.219459,-0.6773243 l -2.315099,0.018021 c -0.289464,0.00225 -0.52063,0.2276346 -0.518288,0.50531 l 0.05366,6.3488316 c 0.0024,0.27768 0.237297,0.499254 0.526672,0.497095 l 2.321007,-0.01806 a 1.2192143,1.1695597 0 0 1 -0.236849,-0.680725 1.2192143,1.1695597 0 0 1 1.209289,-1.179007 1.2192143,1.1695597 0 0 1 1.229063,1.160039 1.2192143,1.1695597 0 0 1 -0.224537,0.684313 z"
         id="rect4513-3"
         inkscape:connector-curvature="0" />
    </g>
  </g>
</svg>
