<?xml version="1.0" encoding="UTF-8" standalone="no"?>
<!-- Created with Inkscape (http://www.inkscape.org/) -->

<svg
   version="1.1"
   id="svg1"
   width="552"
   height="528"
   viewBox="0 0 552 528"
   xmlns="http://www.w3.org/2000/svg"
   xmlns:svg="http://www.w3.org/2000/svg">
  <defs
     id="defs1" />
  <path
     style="fill:#000000"
     d="m 263.66667,510.81728 c -4.4,-2.53408 -11,-6.34439 -14.66667,-8.46734 -3.66667,-2.12296 -12.51667,-7.23427 -19.66667,-11.35846 -16.73484,-9.65283 -26.89315,-15.52604 -37.66666,-21.77768 -4.76667,-2.766 -14.66667,-8.47271 -22,-12.68158 -7.33334,-4.20887 -18.43334,-10.60573 -24.66667,-14.21524 -6.23333,-3.60951 -15.83333,-9.15912 -21.33333,-12.33245 -12.47954,-7.20032 -30.005894,-17.31922 -38.333337,-22.13188 -16.64369,-9.61885 -20.419444,-11.80012 -30.666666,-17.71627 -6.05,-3.49292 -15.043028,-8.68092 -19.984506,-11.5289 -6.857932,-3.95251 -9.264315,-5.69988 -10.166667,-7.38241 -1.116601,-2.08203 -1.182022,-7.6951 -1.179669,-101.21467 0.0024,-95.26613 0.04927,-99.08711 1.239548,-101.03896 1.365914,-2.23987 3.807456,-3.74646 37.091294,-22.88783 l 16,-9.20151 0.396206,-11.27439 c 0.486085,-13.83195 1.481241,-17.08123 7.391821,-24.13503 C 99.737116,84.427763 133.85813,76.40731 162.59162,83.340951 l 5.59161,1.349306 2.40839,-1.439904 c 1.32461,-0.791947 7.20838,-4.206023 13.07505,-7.586834 5.86666,-3.380812 14.26666,-8.223683 18.66666,-10.761936 l 8,-4.615005 0.45844,-5.507342 c 0.25214,-3.029038 0.81043,-6.618518 1.24064,-7.976622 4.41856,-13.948577 20.50539,-25.318576 41.70099,-29.473827 14.71429,-2.884634 31.57066,-2.366653 45.59993,1.401245 10.61482,2.850865 23.67052,10.44832 28.80076,16.759918 5.19363,6.38959 7.05263,11.022015 7.74081,19.289286 l 0.45843,5.507342 8,4.602041 c 4.4,2.531123 13.91831,8.013703 21.1518,12.183511 l 13.15179,7.581468 5.51487,-1.318714 c 9.15582,-2.189334 21.13859,-3.027508 30.36898,-2.124257 19.54626,1.912721 35.07707,8.289863 45.03954,18.493793 7.14316,7.31629 9.10636,13.2263 9.10636,27.41384 v 9.50479 l 6.16666,3.59206 c 3.39167,1.97563 12.01667,6.96387 19.16667,11.08497 24.85727,14.32717 26.79484,15.54529 28.08072,17.65398 1.20425,1.9748 1.24772,5.48885 1.25012,101.05634 0.003,113.5353 0.75049,101.73014 -6.71165,105.97788 -5.06568,2.88358 -37.50942,21.57276 -48.95252,28.19903 -4.4,2.54787 -13.85,8.00804 -21,12.13369 -7.15,4.12566 -17.65,10.18636 -23.33334,13.46823 -5.68333,3.28186 -16.48333,9.5164 -24,13.85453 -13.79163,7.95962 -24.34158,14.05479 -39,22.53202 -4.4,2.5446 -16.1,9.2966 -26,15.00443 -9.9,5.70783 -20.55,11.85729 -23.66666,13.66545 -26.69061,15.4848 -34.72913,19.91299 -36.70845,20.22167 -1.95158,0.30435 -3.47844,-0.32619 -10.29155,-4.25005 z m 1.66666,-105.7561 v -88.27215 l -4.16666,-2.31279 c -2.29167,-1.27203 -8.96667,-5.09969 -14.83334,-8.5059 -5.86666,-3.40621 -13.36666,-7.74602 -16.66666,-9.64401 -3.3,-1.898 -9,-5.18827 -12.66667,-7.31172 -3.66667,-2.12344 -11.61667,-6.71831 -17.66667,-10.21082 -6.05,-3.4925 -14.6,-8.43209 -19,-10.97686 -4.4,-2.54477 -15.05,-8.69182 -23.66666,-13.66011 -25.9916,-14.9865 -27.25562,-15.71626 -39,-22.51602 C 111.43333,228.04183 98.983333,220.84897 90,215.66667 81.016667,210.48436 68.566667,203.29069 62.333333,199.68072 56.1,196.07076 48.489409,191.67009 45.420909,189.90145 c -3.068501,-1.76864 -5.828371,-3.06165 -6.133045,-2.87335 -0.63464,0.39223 -0.87051,173.54649 -0.238647,175.19309 0.382027,0.99555 4.775477,3.63927 34.284116,20.63019 5.683334,3.27243 12.283334,7.08895 14.666667,8.48115 2.383333,1.3922 9.133333,5.29789 15,8.67931 5.86667,3.38141 13.66667,7.88287 17.33333,10.00322 18.83448,10.89159 36.57565,21.132 47.33334,27.32135 6.6,3.79726 21.15,12.19588 32.33333,18.66359 11.18333,6.46771 25.73333,14.86331 32.33333,18.65689 6.6,3.79357 16.5,9.54284 22,12.77616 5.5,3.23331 10.225,5.8836 10.5,5.88952 0.275,0.006 0.5,-39.71171 0.5,-88.26139 z m 38.89507,75.49211 c 12.15771,-7.02903 28.40493,-16.42533 36.10493,-20.88067 7.7,-4.45534 22.25,-12.85698 32.33334,-18.67031 17.37258,-10.0158 31.6,-18.23822 66,-38.14329 8.25,-4.77374 21.15,-12.2181 28.66666,-16.54302 7.51667,-4.32491 18.31667,-10.56016 24,-13.8561 5.68334,-3.29594 11.60834,-6.72341 13.16667,-7.61659 l 2.83333,-1.62397 0.0662,-6.443 c 0.18085,-17.59508 -0.0803,-169.67925 -0.29167,-169.89067 -0.21136,-0.21137 -8.42083,4.41729 -24.44122,13.78045 -2.38334,1.39294 -9.13334,5.29375 -15,8.66845 -19.04978,10.95809 -24.6149,14.17823 -27.66667,16.00877 -1.65,0.98971 -8.25,4.81178 -14.66667,8.49349 -6.41666,3.6817 -26.06666,15.00435 -43.66666,25.16143 -17.6,10.15708 -37.1,21.4067 -43.33334,24.99916 -6.23333,3.59247 -20.6811,11.94091 -32.10616,18.55209 -11.42505,6.61119 -21.70005,12.49983 -22.83333,13.08587 l -2.06051,1.06553 v 88.31621 c 0,48.57392 0.17778,88.31621 0.39507,88.31621 0.21729,0 10.34229,-5.75102 22.5,-12.78004 z M 280.36902,299.44827 C 284.01606,297.31148 292.4,292.46862 299,288.68634 c 6.6,-3.78227 13.35,-7.69112 15,-8.68634 1.65,-0.99522 8.4,-4.90647 15,-8.69167 6.6,-3.7852 21.15,-12.17395 32.33333,-18.64166 11.18334,-6.46772 25.73334,-14.86644 32.33334,-18.66383 21.07696,-12.12688 32.39498,-18.65855 43.33333,-25.00782 5.86667,-3.40537 15.31667,-8.86914 21,-12.14173 31.63078,-18.21368 41.31927,-23.88679 41.30575,-24.18662 -0.0174,-0.38652 -28.54861,-16.89926 -29.72395,-17.20308 -0.46406,-0.11996 -0.98077,0.97154 -1.26238,2.66666 -1.42141,8.55615 -6.9787,16.46705 -16.18063,23.0334 -15.5463,11.09361 -42.76351,15.3529 -66.71045,10.43967 -17.79993,-3.65203 -33.52362,-13.9599 -39.03512,-25.58999 L 344.33333,161.66667 344,140.33333 c -0.18333,-11.73333 -0.12121,-22.79124 0.13805,-24.57313 1.01182,-6.95414 7.46838,-16.595895 14.16953,-21.159738 1.29249,-0.880254 2.35105,-1.750462 2.35236,-1.933795 10e-4,-0.183334 -2.62165,-1.828761 -5.82878,-3.656506 -3.20714,-1.827745 -8.51575,-4.902745 -11.79693,-6.833333 -3.28117,-1.930589 -6.20617,-3.510161 -6.5,-3.510161 -0.29382,0 -0.53423,2.494902 -0.53423,5.544227 0,11.854981 -2.61133,18.439736 -10.35944,26.122436 -5.94654,5.89635 -13.65385,10.30737 -23.30723,13.3391 -10.36642,3.25567 -17.54948,4.32757 -29,4.32757 -22.00291,0 -40.86116,-6.36584 -52.3447,-17.66961 -7.60022,-7.48123 -10.32196,-14.379064 -10.32196,-26.159376 0,-5.103596 -0.11227,-5.604071 -1.16667,-5.20089 -1.09047,0.416973 -22.81911,12.886929 -23.45978,13.463449 -0.16121,0.145069 0.43879,0.752005 1.33333,1.348747 0.89455,0.596742 3.66489,3.134887 6.15632,5.640322 5.1233,5.152098 8.1283,10.728718 9.15301,16.985988 0.83407,5.09308 0.83407,36.75633 0,41.84941 -1.79084,10.93551 -9.8186,20.33053 -23.01621,26.93626 -11.20473,5.60823 -23.66018,8.29256 -38.66667,8.3332 -14.13805,0.0383 -25.34336,-2.05882 -36.22985,-6.78055 -14.430218,-6.25873 -23.556303,-15.88899 -26.136372,-27.58028 -0.465273,-2.10834 -1.092928,-3.83334 -1.394789,-3.83334 -0.301861,0 -2.429122,1.13681 -4.727247,2.52624 -2.298125,1.38943 -8.89935,5.21443 -14.669389,8.5 -5.77004,3.28557 -10.492215,6.12376 -10.493723,6.3071 -0.0025,0.30107 10.258177,6.30758 41.65137,24.3824 5.866667,3.37777 19.96667,11.51942 31.33333,18.09257 C 131.7,221.71479 146.4,230.20034 153,233.99843 c 6.6,3.79809 19.35,11.16343 28.33333,16.36741 32.17673,18.63978 42.39799,24.54434 46.66667,26.95813 2.38333,1.3477 7.33333,4.19153 11,6.31962 5.65952,3.28473 21.9712,12.72457 31.33333,18.13313 1.46667,0.84731 2.83273,1.54417 3.03569,1.54858 0.20296,0.004 3.35296,-1.74025 7,-3.87703 z M 261,263.96023 c -23.79162,-3.20312 -42.57766,-14.55746 -48.46694,-29.29356 -1.36974,-3.42734 -1.48237,-4.96446 -1.72563,-23.5499 -0.29128,-22.25327 0.12737,-26.37699 3.32025,-32.70481 2.46558,-4.88642 9.85862,-12.42692 15.32663,-15.63231 8.98679,-5.26813 19.19018,-8.68367 30.39896,-10.17591 8.43517,-1.12299 27.52507,-0.39792 35.00524,1.32955 17.56256,4.0559 32.20051,13.6247 37.79439,24.7061 3.0639,6.06955 3.48181,10.31839 3.19056,32.438 -0.29525,22.42328 -0.39518,22.97992 -5.42263,30.20406 -7.21871,10.37286 -21.42897,18.25086 -39.2101,21.73761 -6.59552,1.29333 -23.64889,1.82461 -30.21073,0.94117 z m 32.55903,-17.52302 c 8.25954,-2.17058 15.64729,-5.83049 20.26504,-10.03934 C 318.7841,231.87705 320,229.24454 320,223.02656 320,220.26195 319.88387,218 319.74192,218 c -0.14194,0 -2.76694,1.33247 -5.83333,2.96105 -11.88693,6.31321 -24.57619,9.15591 -40.70695,9.11932 -16.15261,-0.0366 -28.64634,-2.85375 -40.44356,-9.11932 C 229.69169,219.33247 227.06669,218 226.92474,218 c -0.81948,0 -0.13055,10.31989 0.81442,12.19977 2.83009,5.63002 11.17046,11.65799 20.43158,14.76685 8.89964,2.98751 14.40395,3.68202 27.16259,3.42725 9.92374,-0.19816 12.64655,-0.49047 18.2257,-1.95666 z m -8.02007,-32.48215 C 304.91289,211.0795 320,201.02973 320,191 c 0,-8.52933 -10.81388,-17.10084 -27.08547,-21.46903 -6.05624,-1.62582 -7.61815,-1.76675 -19.5812,-1.76675 -11.96304,0 -13.52495,0.14093 -19.58119,1.76675 -16.27159,4.36819 -27.08547,12.9397 -27.08547,21.46903 0,9.74674 13.89887,19.38738 32.66666,22.6585 6.23083,1.086 19.84858,1.24011 26.20563,0.29656 z M 159.45029,176.1055 c 11.73918,-3.11745 21.27276,-8.5936 25.52491,-14.66167 1.81943,-2.59643 2.04833,-3.48958 2.25677,-8.8057 l 0.23196,-5.91619 -5.12629,2.92134 c -6.35426,3.62113 -17.78792,7.40027 -26.6229,8.79959 -5.0776,0.80421 -9.58944,0.97728 -18.70332,0.71743 -10.67743,-0.30443 -12.89217,-0.57447 -19.94178,-2.43145 -7.77714,-2.04862 -17.133252,-5.92589 -21.078475,-8.73514 L 94,146.57587 v 5.40529 c 0,6.26229 1.08496,8.97072 5.110177,12.75675 6.325263,5.94939 15.455513,10.09711 27.117543,12.31905 7.22079,1.37576 26.54287,0.8224 33.22257,-0.95146 z m 260.62905,0.91598 c 10.89666,-1.90834 20.36582,-5.94537 26.25305,-11.19258 5.1494,-4.58958 6.33428,-7.16333 6.33428,-13.75914 v -5.31669 l -4.49615,2.6274 c -5.52948,3.23124 -11.16272,5.41687 -19.84906,7.70122 -9.04293,2.37811 -27.37391,3.00315 -37.6555,1.28395 -9.25021,-1.54675 -19.97718,-5.09067 -26.16596,-8.64457 l -5.16667,-2.96696 v 5.07913 c 0,6.38088 1.48123,9.68152 6.22641,13.87438 5.80792,5.13189 17.73463,10.1533 27.44026,11.55295 6.58806,0.95007 21.01669,0.82267 27.07934,-0.23909 z M 156.97672,142.34886 c 13.70738,-2.91365 24.34976,-8.89816 28.40902,-15.97519 3.47644,-6.06092 2.05741,-11.84147 -4.26446,-17.37169 -11.49612,-10.056527 -33.66466,-14.674526 -54.34448,-11.320673 -14.70811,2.385363 -27.553792,9.360963 -31.506572,17.109053 -5.945918,11.65497 8.196412,23.97581 32.396442,28.22388 6.88037,1.20778 22.12592,0.86169 29.31005,-0.66538 z m 259.68995,0.96319 c 16.08508,-2.0807 30.60603,-9.35256 34.69986,-17.37711 1.57794,-3.09302 1.68614,-7.92 0.24558,-10.95575 -2.50557,-5.28008 -11.57067,-11.59647 -21.39064,-14.90458 -13.89644,-4.681374 -35.3866,-4.452927 -49.73834,0.52873 -5.6563,1.96337 -11.5369,5.27496 -15.17409,8.54511 -10.5098,9.44921 -6.84886,20.11436 9.74868,28.4001 10.61983,5.30158 27.30897,7.61329 41.60895,5.7635 z M 282.93963,111.97528 c 8.8315,-1.01174 13.97094,-2.44433 21.54278,-6.00491 4.81363,-2.26356 7.75678,-4.14974 10.01927,-6.421039 C 318.9308,95.102951 320,92.545797 320,86.399247 c 0,-4.69351 -0.5823,-6.153785 -1.7199,-4.313107 -0.6035,0.976481 -11.41637,6.026919 -16.78569,7.840204 -7.87158,2.658328 -15.72907,3.6871 -28.16108,3.6871 -12.85614,0 -19.96424,-0.981428 -29.01035,-4.005513 -5.68565,-1.900695 -15.27863,-6.457481 -15.97858,-7.590025 -1.95217,-3.158681 -2.44476,7.815896 -0.53329,11.881341 3.94665,8.393983 19.16904,16.193473 35.24276,18.057303 6.7492,0.78261 13.16509,0.78865 19.88576,0.0187 z m 6.2911,-35.044105 C 307.20402,73.218689 320,63.959574 320,54.666667 c 0,-9.682662 -13.6728,-19.203036 -32.66667,-22.745806 -6.47116,-1.207014 -23.24041,-1.000037 -29.56702,0.364934 -18.63672,4.020885 -31.09964,12.992459 -31.09964,22.38742 0,5.038308 3.15808,9.548701 9.79755,13.992911 6.92526,4.635509 16.7404,8.02714 26.90788,9.298043 6.36463,0.795559 19.55753,0.268532 25.85863,-1.032994 z"
     id="path1" />
  <text
     xml:space="preserve"
     style="font-style:normal;font-variant:normal;font-weight:normal;font-stretch:normal;font-size:237.277px;line-height:0;font-family:'Times New Roman';-inkscape-font-specification:'Times New Roman, Normal';font-variant-ligatures:normal;font-variant-caps:normal;font-variant-numeric:normal;font-variant-east-asian:normal;text-align:start;writing-mode:lr-tb;direction:ltr;text-anchor:start;display:inline;fill:#1a1a1a;fill-opacity:0.184314;stroke:#000000;stroke-width:0.533876;stroke-miterlimit:3.6"
     x="80.181648"
     y="310.92438"
     id="text2"
     transform="matrix(1.0581608,0.54561676,0,0.94503596,0,0)"><tspan
       id="tspan2"
       x="80.181648"
       y="310.92438"
       style="font-style:normal;font-variant:normal;font-weight:normal;font-stretch:normal;font-size:237.277px;font-family:'Times New Roman';-inkscape-font-specification:'Times New Roman, Normal';font-variant-ligatures:normal;font-variant-caps:normal;font-variant-numeric:normal;font-variant-east-asian:normal;fill:#000000;fill-opacity:1;stroke-width:0.533876">µ</tspan></text>
</svg>
